<mxfile host="app.diagrams.net" modified="2024-07-12T05:59:42.887Z" agent="Mozilla/5.0 (Windows NT 10.0; Win64; x64) AppleWebKit/537.36 (KHTML, like Gecko) Chrome/126.0.0.0 Safari/537.36" etag="3aot2JGZIGr8FlBS2z7A" version="24.6.5" type="device" pages="2">
  <diagram name="API AWS - Diagrama de Componentes Macro" id="RYDjQzx2IbXRtYUlg_KZ">
    <mxGraphModel dx="1487" dy="614" grid="1" gridSize="10" guides="1" tooltips="1" connect="1" arrows="1" fold="1" page="1" pageScale="1" pageWidth="827" pageHeight="1169" background="#ffffff" math="0" shadow="1">
      <root>
        <mxCell id="xXk6c2fZzYA9Fltuj6-y-0" />
        <mxCell id="xXk6c2fZzYA9Fltuj6-y-1" parent="xXk6c2fZzYA9Fltuj6-y-0" />
        <mxCell id="csvrrilFh1N0ctPD5fT1-46" value="" style="edgeStyle=orthogonalEdgeStyle;rounded=0;orthogonalLoop=1;jettySize=auto;html=1;entryX=0.5;entryY=1;entryDx=0;entryDy=0;entryPerimeter=0;dashed=1;" parent="xXk6c2fZzYA9Fltuj6-y-1" source="WuZXI1SwSD9bpul6dXoL-14" target="WuZXI1SwSD9bpul6dXoL-32" edge="1">
          <mxGeometry relative="1" as="geometry">
            <Array as="points">
              <mxPoint x="-242" y="230" />
              <mxPoint x="29" y="230" />
            </Array>
          </mxGeometry>
        </mxCell>
        <mxCell id="WuZXI1SwSD9bpul6dXoL-14" value="&lt;p style=&quot;margin:0px;margin-top:6px;text-align:center;&quot;&gt;&lt;b&gt;homeSale&lt;/b&gt;&lt;/p&gt;&lt;hr size=&quot;1&quot; style=&quot;border-style:solid;&quot;&gt;&lt;p style=&quot;margin: 0px 0px 0px 8px;&quot;&gt;&lt;br&gt;&lt;/p&gt;" style="align=left;overflow=fill;html=1;dropTarget=0;whiteSpace=wrap;fillColor=none;strokeColor=#000000;" parent="xXk6c2fZzYA9Fltuj6-y-1" vertex="1">
          <mxGeometry x="-340" y="250" width="196.66" height="220" as="geometry" />
        </mxCell>
        <mxCell id="csvrrilFh1N0ctPD5fT1-2" value="" style="edgeStyle=orthogonalEdgeStyle;rounded=0;orthogonalLoop=1;jettySize=auto;html=1;" parent="xXk6c2fZzYA9Fltuj6-y-1" source="WuZXI1SwSD9bpul6dXoL-1" edge="1">
          <mxGeometry relative="1" as="geometry">
            <mxPoint x="-340" y="360" as="targetPoint" />
          </mxGeometry>
        </mxCell>
        <mxCell id="WuZXI1SwSD9bpul6dXoL-1" value="&lt;p style=&quot;margin:0px;margin-top:6px;text-align:center;&quot;&gt;&lt;b&gt;Gestion de acceso&lt;/b&gt;&lt;/p&gt;&lt;hr size=&quot;1&quot; style=&quot;border-style:solid;&quot;&gt;&lt;p style=&quot;margin:0px;margin-left:8px;&quot;&gt;Identity And Access Management&lt;/p&gt;&lt;p style=&quot;margin:0px;margin-left:8px;&quot;&gt;*AccessPolicies&lt;/p&gt;&lt;p style=&quot;margin:0px;margin-left:8px;&quot;&gt;*User Profile&lt;/p&gt;" style="align=left;overflow=fill;html=1;dropTarget=0;whiteSpace=wrap;" parent="xXk6c2fZzYA9Fltuj6-y-1" vertex="1">
          <mxGeometry x="-640" y="277.01" width="260" height="86.5" as="geometry" />
        </mxCell>
        <mxCell id="WuZXI1SwSD9bpul6dXoL-2" value="" style="shape=component;jettyWidth=8;jettyHeight=4;" parent="WuZXI1SwSD9bpul6dXoL-1" vertex="1">
          <mxGeometry x="1" width="20" height="20" relative="1" as="geometry">
            <mxPoint x="-24" y="4" as="offset" />
          </mxGeometry>
        </mxCell>
        <mxCell id="WuZXI1SwSD9bpul6dXoL-6" value="" style="outlineConnect=0;dashed=0;verticalLabelPosition=bottom;verticalAlign=top;align=center;html=1;shape=mxgraph.aws3.iam;fillColor=#759C3E;gradientColor=none;" parent="xXk6c2fZzYA9Fltuj6-y-1" vertex="1">
          <mxGeometry x="-423" y="318.7" width="20" height="33.5" as="geometry" />
        </mxCell>
        <mxCell id="WuZXI1SwSD9bpul6dXoL-10" value="" style="group" parent="xXk6c2fZzYA9Fltuj6-y-1" vertex="1" connectable="0">
          <mxGeometry x="-780" y="289.01" width="30" height="60" as="geometry" />
        </mxCell>
        <mxCell id="WuZXI1SwSD9bpul6dXoL-7" value="" style="verticalLabelPosition=bottom;shadow=0;dashed=0;align=center;html=1;verticalAlign=top;strokeWidth=1;shape=mxgraph.mockup.containers.userMale;strokeColor=#666666;strokeColor2=#008cff;" parent="WuZXI1SwSD9bpul6dXoL-10" vertex="1">
          <mxGeometry width="30" height="30.305999999999997" as="geometry" />
        </mxCell>
        <mxCell id="WuZXI1SwSD9bpul6dXoL-9" value="" style="verticalLabelPosition=bottom;shadow=0;dashed=0;align=center;html=1;verticalAlign=top;strokeWidth=1;shape=mxgraph.mockup.containers.userFemale;strokeColor=#666666;strokeColor2=#008cff;" parent="WuZXI1SwSD9bpul6dXoL-10" vertex="1">
          <mxGeometry y="30.599999999999998" width="30" height="29.4" as="geometry" />
        </mxCell>
        <mxCell id="WuZXI1SwSD9bpul6dXoL-11" value="" style="endArrow=classic;html=1;rounded=0;exitX=0.987;exitY=0.002;exitDx=0;exitDy=0;exitPerimeter=0;entryX=0;entryY=0.5;entryDx=0;entryDy=0;" parent="xXk6c2fZzYA9Fltuj6-y-1" source="WuZXI1SwSD9bpul6dXoL-9" target="WuZXI1SwSD9bpul6dXoL-1" edge="1">
          <mxGeometry width="50" height="50" relative="1" as="geometry">
            <mxPoint x="-730" y="350" as="sourcePoint" />
            <mxPoint x="-600" y="310" as="targetPoint" />
          </mxGeometry>
        </mxCell>
        <mxCell id="WuZXI1SwSD9bpul6dXoL-19" value="" style="group;strokeColor=#000000;fillColor=none;container=0;" parent="xXk6c2fZzYA9Fltuj6-y-1" vertex="1" connectable="0">
          <mxGeometry x="-340" y="250" width="196.66" height="220" as="geometry" />
        </mxCell>
        <mxCell id="S8SYonLmk7t8HdG_FkVH-0" value="REST/HTTP(S)" style="text;html=1;align=center;verticalAlign=middle;resizable=0;points=[];autosize=1;strokeColor=none;fillColor=none;" parent="xXk6c2fZzYA9Fltuj6-y-1" vertex="1">
          <mxGeometry x="-750" y="289.01" width="110" height="30" as="geometry" />
        </mxCell>
        <mxCell id="S8SYonLmk7t8HdG_FkVH-15" value="" style="group" parent="xXk6c2fZzYA9Fltuj6-y-1" vertex="1" connectable="0">
          <mxGeometry x="-70.00000000000007" y="319.01000000000005" width="180" height="23.629999999999995" as="geometry" />
        </mxCell>
        <mxCell id="S8SYonLmk7t8HdG_FkVH-12" value="/searchById" style="rounded=0;whiteSpace=wrap;html=1;fillColor=none;container=0;strokeColor=#000000;" parent="S8SYonLmk7t8HdG_FkVH-15" vertex="1">
          <mxGeometry width="180" height="23.63" as="geometry" />
        </mxCell>
        <mxCell id="S8SYonLmk7t8HdG_FkVH-14" value="" style="outlineConnect=0;dashed=0;verticalLabelPosition=bottom;verticalAlign=top;align=center;html=1;shape=mxgraph.aws3.lambda_function;fillColor=#F58534;gradientColor=none;" parent="S8SYonLmk7t8HdG_FkVH-15" vertex="1">
          <mxGeometry x="11.670000000000059" y="1.8999999999999773" width="19" height="19.83" as="geometry" />
        </mxCell>
        <mxCell id="S8SYonLmk7t8HdG_FkVH-16" value="" style="group" parent="xXk6c2fZzYA9Fltuj6-y-1" vertex="1" connectable="0">
          <mxGeometry x="-70.00000000000007" y="370.00000000000006" width="180" height="23.629999999999995" as="geometry" />
        </mxCell>
        <mxCell id="S8SYonLmk7t8HdG_FkVH-11" value="/sellUnit" style="rounded=0;whiteSpace=wrap;html=1;fillColor=none;container=0;strokeColor=#000000;" parent="S8SYonLmk7t8HdG_FkVH-16" vertex="1">
          <mxGeometry width="180" height="23.63" as="geometry" />
        </mxCell>
        <mxCell id="S8SYonLmk7t8HdG_FkVH-13" value="" style="outlineConnect=0;dashed=0;verticalLabelPosition=bottom;verticalAlign=top;align=center;html=1;shape=mxgraph.aws3.lambda_function;fillColor=#F58534;gradientColor=none;" parent="S8SYonLmk7t8HdG_FkVH-16" vertex="1">
          <mxGeometry x="11.670000000000059" y="1.8999999999999773" width="19" height="19.83" as="geometry" />
        </mxCell>
        <mxCell id="S8SYonLmk7t8HdG_FkVH-17" value="" style="group" parent="xXk6c2fZzYA9Fltuj6-y-1" vertex="1" connectable="0">
          <mxGeometry x="-70.00000000000007" y="250.0000000000001" width="180" height="23.629999999999995" as="geometry" />
        </mxCell>
        <mxCell id="S8SYonLmk7t8HdG_FkVH-3" value="/createProject" style="rounded=0;whiteSpace=wrap;html=1;fillColor=none;strokeColor=#000000;container=0;" parent="S8SYonLmk7t8HdG_FkVH-17" vertex="1">
          <mxGeometry width="180" height="23.63" as="geometry" />
        </mxCell>
        <mxCell id="S8SYonLmk7t8HdG_FkVH-4" value="" style="outlineConnect=0;dashed=0;verticalLabelPosition=bottom;verticalAlign=top;align=center;html=1;shape=mxgraph.aws3.lambda_function;fillColor=#F58534;gradientColor=none;" parent="S8SYonLmk7t8HdG_FkVH-17" vertex="1">
          <mxGeometry x="10.000000000000057" y="1.8999999999999204" width="19" height="19.83" as="geometry" />
        </mxCell>
        <mxCell id="S8SYonLmk7t8HdG_FkVH-25" value="" style="edgeStyle=orthogonalEdgeStyle;rounded=0;orthogonalLoop=1;jettySize=auto;html=1;entryX=0;entryY=0.5;entryDx=0;entryDy=0;" parent="xXk6c2fZzYA9Fltuj6-y-1" source="WuZXI1SwSD9bpul6dXoL-16" target="S8SYonLmk7t8HdG_FkVH-3" edge="1">
          <mxGeometry relative="1" as="geometry">
            <Array as="points">
              <mxPoint x="-130" y="304" />
              <mxPoint x="-130" y="262" />
            </Array>
          </mxGeometry>
        </mxCell>
        <mxCell id="S8SYonLmk7t8HdG_FkVH-26" value="" style="edgeStyle=orthogonalEdgeStyle;rounded=0;orthogonalLoop=1;jettySize=auto;html=1;entryX=0;entryY=0.5;entryDx=0;entryDy=0;" parent="xXk6c2fZzYA9Fltuj6-y-1" source="WuZXI1SwSD9bpul6dXoL-17" target="S8SYonLmk7t8HdG_FkVH-12" edge="1">
          <mxGeometry relative="1" as="geometry" />
        </mxCell>
        <mxCell id="S8SYonLmk7t8HdG_FkVH-27" value="" style="edgeStyle=orthogonalEdgeStyle;rounded=0;orthogonalLoop=1;jettySize=auto;html=1;entryX=0;entryY=0.5;entryDx=0;entryDy=0;" parent="xXk6c2fZzYA9Fltuj6-y-1" source="WuZXI1SwSD9bpul6dXoL-18" target="S8SYonLmk7t8HdG_FkVH-11" edge="1">
          <mxGeometry relative="1" as="geometry">
            <Array as="points">
              <mxPoint x="-100" y="392" />
              <mxPoint x="-100" y="382" />
            </Array>
          </mxGeometry>
        </mxCell>
        <mxCell id="S8SYonLmk7t8HdG_FkVH-28" value="" style="edgeStyle=orthogonalEdgeStyle;rounded=0;orthogonalLoop=1;jettySize=auto;html=1;entryX=0;entryY=0.5;entryDx=0;entryDy=0;" parent="xXk6c2fZzYA9Fltuj6-y-1" source="S8SYonLmk7t8HdG_FkVH-3" target="S8SYonLmk7t8HdG_FkVH-19" edge="1">
          <mxGeometry relative="1" as="geometry" />
        </mxCell>
        <mxCell id="S8SYonLmk7t8HdG_FkVH-31" value="" style="group" parent="xXk6c2fZzYA9Fltuj6-y-1" vertex="1" connectable="0">
          <mxGeometry x="760" y="265.38" width="146.67" height="73.63" as="geometry" />
        </mxCell>
        <mxCell id="S8SYonLmk7t8HdG_FkVH-18" value="" style="group" parent="S8SYonLmk7t8HdG_FkVH-31" vertex="1" connectable="0">
          <mxGeometry y="50" width="146.67" height="23.629999999999995" as="geometry" />
        </mxCell>
        <mxCell id="S8SYonLmk7t8HdG_FkVH-21" value="" style="outlineConnect=0;dashed=0;verticalLabelPosition=bottom;verticalAlign=top;align=center;html=1;shape=mxgraph.aws3.dynamo_db;fillColor=#2E73B8;gradientColor=none;" parent="S8SYonLmk7t8HdG_FkVH-18" vertex="1">
          <mxGeometry x="13.037333333333356" y="-27.31966942148773" width="23.97239666666667" height="28.263223140495867" as="geometry" />
        </mxCell>
        <mxCell id="S8SYonLmk7t8HdG_FkVH-19" value="Proyectos" style="rounded=0;whiteSpace=wrap;html=1;fillColor=none;strokeColor=#000000;container=0;" parent="S8SYonLmk7t8HdG_FkVH-31" vertex="1">
          <mxGeometry width="146.67" height="73.63" as="geometry" />
        </mxCell>
        <mxCell id="S8SYonLmk7t8HdG_FkVH-37" value="" style="edgeStyle=orthogonalEdgeStyle;rounded=0;orthogonalLoop=1;jettySize=auto;html=1;" parent="xXk6c2fZzYA9Fltuj6-y-1" source="S8SYonLmk7t8HdG_FkVH-12" target="S8SYonLmk7t8HdG_FkVH-19" edge="1">
          <mxGeometry relative="1" as="geometry" />
        </mxCell>
        <mxCell id="WuZXI1SwSD9bpul6dXoL-13" value="" style="image;aspect=fixed;html=1;points=[];align=center;fontSize=12;image=img/lib/azure2/other/API_Proxy.svg;fillColor=none;strokeColor=#000000;" parent="xXk6c2fZzYA9Fltuj6-y-1" vertex="1">
          <mxGeometry x="-186.35999999999999" y="253.24" width="39.69" height="22.18" as="geometry" />
        </mxCell>
        <mxCell id="WuZXI1SwSD9bpul6dXoL-16" value="/createProject" style="rounded=0;whiteSpace=wrap;html=1;fillColor=none;strokeColor=#000000;container=0;" parent="xXk6c2fZzYA9Fltuj6-y-1" vertex="1">
          <mxGeometry x="-260" y="287.69" width="108.33" height="23.63" as="geometry" />
        </mxCell>
        <mxCell id="WuZXI1SwSD9bpul6dXoL-17" value="/searchById" style="rounded=0;whiteSpace=wrap;html=1;fillColor=none;container=0;strokeColor=#000000;" parent="xXk6c2fZzYA9Fltuj6-y-1" vertex="1">
          <mxGeometry x="-260" y="350" width="108.33" height="23.63" as="geometry" />
        </mxCell>
        <mxCell id="WuZXI1SwSD9bpul6dXoL-18" value="/sellUnit" style="rounded=0;whiteSpace=wrap;html=1;fillColor=none;container=0;strokeColor=#000000;" parent="xXk6c2fZzYA9Fltuj6-y-1" vertex="1">
          <mxGeometry x="-260" y="380" width="108.33" height="23.63" as="geometry" />
        </mxCell>
        <mxCell id="S8SYonLmk7t8HdG_FkVH-22" value="POST" style="rounded=0;whiteSpace=wrap;html=1;fillColor=none;strokeColor=#000000;container=0;" parent="xXk6c2fZzYA9Fltuj6-y-1" vertex="1">
          <mxGeometry x="-331.67" y="287.69" width="61.67" height="23.63" as="geometry" />
        </mxCell>
        <mxCell id="S8SYonLmk7t8HdG_FkVH-23" value="GET" style="rounded=0;whiteSpace=wrap;html=1;fillColor=none;strokeColor=#000000;container=0;" parent="xXk6c2fZzYA9Fltuj6-y-1" vertex="1">
          <mxGeometry x="-331.67" y="350" width="61.67" height="23.63" as="geometry" />
        </mxCell>
        <mxCell id="S8SYonLmk7t8HdG_FkVH-24" value="POST" style="rounded=0;whiteSpace=wrap;html=1;fillColor=none;strokeColor=#000000;container=0;" parent="xXk6c2fZzYA9Fltuj6-y-1" vertex="1">
          <mxGeometry x="-331.67" y="380" width="61.67" height="23.63" as="geometry" />
        </mxCell>
        <mxCell id="csvrrilFh1N0ctPD5fT1-40" value="" style="edgeStyle=orthogonalEdgeStyle;rounded=0;orthogonalLoop=1;jettySize=auto;html=1;entryX=0;entryY=0.5;entryDx=0;entryDy=0;" parent="xXk6c2fZzYA9Fltuj6-y-1" source="csvrrilFh1N0ctPD5fT1-0" target="csvrrilFh1N0ctPD5fT1-38" edge="1">
          <mxGeometry relative="1" as="geometry">
            <Array as="points">
              <mxPoint x="-80" y="450" />
              <mxPoint x="-80" y="484" />
            </Array>
          </mxGeometry>
        </mxCell>
        <mxCell id="csvrrilFh1N0ctPD5fT1-0" value="/reservationUnit&amp;nbsp;" style="rounded=0;whiteSpace=wrap;html=1;fillColor=none;container=0;strokeColor=#000000;" parent="xXk6c2fZzYA9Fltuj6-y-1" vertex="1">
          <mxGeometry x="-260" y="440" width="108.33" height="23.63" as="geometry" />
        </mxCell>
        <mxCell id="csvrrilFh1N0ctPD5fT1-1" value="POST" style="rounded=0;whiteSpace=wrap;html=1;fillColor=none;strokeColor=#000000;container=0;" parent="xXk6c2fZzYA9Fltuj6-y-1" vertex="1">
          <mxGeometry x="-331.67" y="440" width="61.67" height="23.63" as="geometry" />
        </mxCell>
        <mxCell id="csvrrilFh1N0ctPD5fT1-3" value="" style="group" parent="xXk6c2fZzYA9Fltuj6-y-1" vertex="1" connectable="0">
          <mxGeometry x="161.67" y="360" width="288.33000000000004" height="110" as="geometry" />
        </mxCell>
        <mxCell id="S8SYonLmk7t8HdG_FkVH-39" value="" style="group" parent="csvrrilFh1N0ctPD5fT1-3" vertex="1" connectable="0">
          <mxGeometry x="12.212899928811169" width="215.03793908268077" height="73.63" as="geometry" />
        </mxCell>
        <mxCell id="S8SYonLmk7t8HdG_FkVH-43" value="" style="group;strokeColor=#000000;fillColor=none;container=0;" parent="csvrrilFh1N0ctPD5fT1-3" vertex="1" connectable="0">
          <mxGeometry width="288.33" height="110" as="geometry" />
        </mxCell>
        <mxCell id="S8SYonLmk7t8HdG_FkVH-44" value="&lt;p style=&quot;margin:0px;margin-top:6px;text-align:center;&quot;&gt;&lt;b&gt;internalHomeSale&lt;/b&gt;&lt;/p&gt;&lt;hr size=&quot;1&quot; style=&quot;border-style:solid;&quot;&gt;&lt;p style=&quot;margin: 0px 0px 0px 8px;&quot;&gt;&lt;br&gt;&lt;/p&gt;" style="align=left;overflow=fill;html=1;dropTarget=0;whiteSpace=wrap;fillColor=none;strokeColor=#000000;" parent="csvrrilFh1N0ctPD5fT1-3" vertex="1">
          <mxGeometry width="288.33" height="110" as="geometry" />
        </mxCell>
        <mxCell id="S8SYonLmk7t8HdG_FkVH-45" value="" style="image;aspect=fixed;html=1;points=[];align=center;fontSize=12;image=img/lib/azure2/other/API_Proxy.svg;fillColor=none;strokeColor=#000000;" parent="csvrrilFh1N0ctPD5fT1-3" vertex="1">
          <mxGeometry x="225.2568961659717" y="3.240000000000009" width="32.85337955387133" height="18.35948497114805" as="geometry" />
        </mxCell>
        <mxCell id="S8SYonLmk7t8HdG_FkVH-46" value="/searchByprojectIdapartamentId&amp;nbsp;" style="rounded=0;whiteSpace=wrap;html=1;fillColor=none;strokeColor=#000000;container=0;align=center;" parent="csvrrilFh1N0ctPD5fT1-3" vertex="1">
          <mxGeometry x="66.21996382740505" y="41.69" width="209.90073034191715" height="23.63" as="geometry" />
        </mxCell>
        <mxCell id="S8SYonLmk7t8HdG_FkVH-47" value="/manageUnit&amp;nbsp;" style="rounded=0;whiteSpace=wrap;html=1;fillColor=none;container=0;strokeColor=#000000;" parent="csvrrilFh1N0ctPD5fT1-3" vertex="1">
          <mxGeometry x="66.21996382740505" y="71.69" width="209.90073034191715" height="23.63" as="geometry" />
        </mxCell>
        <mxCell id="S8SYonLmk7t8HdG_FkVH-49" value="POST" style="rounded=0;whiteSpace=wrap;html=1;fillColor=none;strokeColor=#000000;container=0;" parent="csvrrilFh1N0ctPD5fT1-3" vertex="1">
          <mxGeometry x="12.209305830677806" y="41.69" width="45.73316251830161" height="23.63" as="geometry" />
        </mxCell>
        <mxCell id="S8SYonLmk7t8HdG_FkVH-50" value="GET" style="rounded=0;whiteSpace=wrap;html=1;fillColor=none;strokeColor=#000000;container=0;" parent="csvrrilFh1N0ctPD5fT1-3" vertex="1">
          <mxGeometry x="12.209305830677806" y="71.69" width="45.73316251830161" height="23.63" as="geometry" />
        </mxCell>
        <mxCell id="csvrrilFh1N0ctPD5fT1-5" value="" style="edgeStyle=orthogonalEdgeStyle;rounded=0;orthogonalLoop=1;jettySize=auto;html=1;entryX=0;entryY=0.5;entryDx=0;entryDy=0;" parent="xXk6c2fZzYA9Fltuj6-y-1" source="S8SYonLmk7t8HdG_FkVH-11" target="S8SYonLmk7t8HdG_FkVH-44" edge="1">
          <mxGeometry relative="1" as="geometry" />
        </mxCell>
        <mxCell id="csvrrilFh1N0ctPD5fT1-10" value="" style="group" parent="xXk6c2fZzYA9Fltuj6-y-1" vertex="1" connectable="0">
          <mxGeometry x="480" y="401" width="250" height="23.63" as="geometry" />
        </mxCell>
        <mxCell id="csvrrilFh1N0ctPD5fT1-11" value="/searchByprojectIdapartamentId&amp;nbsp;" style="rounded=0;whiteSpace=wrap;html=1;fillColor=none;strokeColor=#000000;container=0;" parent="csvrrilFh1N0ctPD5fT1-10" vertex="1">
          <mxGeometry width="250" height="23.630000000000003" as="geometry" />
        </mxCell>
        <mxCell id="csvrrilFh1N0ctPD5fT1-18" value="" style="outlineConnect=0;dashed=0;verticalLabelPosition=bottom;verticalAlign=top;align=center;html=1;shape=mxgraph.aws3.lambda_function;fillColor=#F58534;gradientColor=none;" parent="csvrrilFh1N0ctPD5fT1-10" vertex="1">
          <mxGeometry x="10" y="1.900000000000034" width="19" height="19.83" as="geometry" />
        </mxCell>
        <mxCell id="csvrrilFh1N0ctPD5fT1-13" value="" style="group" parent="xXk6c2fZzYA9Fltuj6-y-1" vertex="1" connectable="0">
          <mxGeometry x="479.99999999999994" y="431.0000000000001" width="250" height="23.63" as="geometry" />
        </mxCell>
        <mxCell id="csvrrilFh1N0ctPD5fT1-14" value="&amp;nbsp; &amp;nbsp; &amp;nbsp; &amp;nbsp; &amp;nbsp; &amp;nbsp; /manageUnit" style="rounded=0;whiteSpace=wrap;html=1;fillColor=none;strokeColor=#000000;container=0;" parent="csvrrilFh1N0ctPD5fT1-13" vertex="1">
          <mxGeometry width="250" height="23.63" as="geometry" />
        </mxCell>
        <mxCell id="csvrrilFh1N0ctPD5fT1-15" value="" style="outlineConnect=0;dashed=0;verticalLabelPosition=bottom;verticalAlign=top;align=center;html=1;shape=mxgraph.aws3.lambda_function;fillColor=#F58534;gradientColor=none;" parent="csvrrilFh1N0ctPD5fT1-13" vertex="1">
          <mxGeometry x="10.000000000000057" y="1.8999999999999204" width="19" height="19.83" as="geometry" />
        </mxCell>
        <mxCell id="csvrrilFh1N0ctPD5fT1-16" value="" style="edgeStyle=orthogonalEdgeStyle;rounded=0;orthogonalLoop=1;jettySize=auto;html=1;entryX=0;entryY=0.5;entryDx=0;entryDy=0;" parent="xXk6c2fZzYA9Fltuj6-y-1" source="S8SYonLmk7t8HdG_FkVH-46" target="csvrrilFh1N0ctPD5fT1-11" edge="1">
          <mxGeometry relative="1" as="geometry" />
        </mxCell>
        <mxCell id="csvrrilFh1N0ctPD5fT1-17" value="" style="edgeStyle=orthogonalEdgeStyle;rounded=0;orthogonalLoop=1;jettySize=auto;html=1;entryX=0;entryY=0.5;entryDx=0;entryDy=0;" parent="xXk6c2fZzYA9Fltuj6-y-1" source="S8SYonLmk7t8HdG_FkVH-47" target="csvrrilFh1N0ctPD5fT1-14" edge="1">
          <mxGeometry relative="1" as="geometry" />
        </mxCell>
        <mxCell id="csvrrilFh1N0ctPD5fT1-19" value="" style="group" parent="xXk6c2fZzYA9Fltuj6-y-1" vertex="1" connectable="0">
          <mxGeometry x="760" y="350" width="146.67" height="73.63" as="geometry" />
        </mxCell>
        <mxCell id="csvrrilFh1N0ctPD5fT1-20" value="" style="group" parent="csvrrilFh1N0ctPD5fT1-19" vertex="1" connectable="0">
          <mxGeometry y="50" width="146.67" height="23.629999999999995" as="geometry" />
        </mxCell>
        <mxCell id="csvrrilFh1N0ctPD5fT1-21" value="" style="outlineConnect=0;dashed=0;verticalLabelPosition=bottom;verticalAlign=top;align=center;html=1;shape=mxgraph.aws3.dynamo_db;fillColor=#2E73B8;gradientColor=none;" parent="csvrrilFh1N0ctPD5fT1-20" vertex="1">
          <mxGeometry x="13.037333333333356" y="-27.31966942148773" width="23.97239666666667" height="28.263223140495867" as="geometry" />
        </mxCell>
        <mxCell id="csvrrilFh1N0ctPD5fT1-22" value="&amp;nbsp; &amp;nbsp; &amp;nbsp; &amp;nbsp; &amp;nbsp; Ventas" style="rounded=0;whiteSpace=wrap;html=1;fillColor=none;strokeColor=#000000;container=0;" parent="csvrrilFh1N0ctPD5fT1-19" vertex="1">
          <mxGeometry width="146.67" height="73.63" as="geometry" />
        </mxCell>
        <mxCell id="csvrrilFh1N0ctPD5fT1-31" value="" style="group" parent="xXk6c2fZzYA9Fltuj6-y-1" vertex="1" connectable="0">
          <mxGeometry x="760" y="440" width="146.67" height="73.63" as="geometry" />
        </mxCell>
        <mxCell id="csvrrilFh1N0ctPD5fT1-32" value="" style="group" parent="csvrrilFh1N0ctPD5fT1-31" vertex="1" connectable="0">
          <mxGeometry y="50" width="146.67" height="23.629999999999995" as="geometry" />
        </mxCell>
        <mxCell id="csvrrilFh1N0ctPD5fT1-33" value="" style="outlineConnect=0;dashed=0;verticalLabelPosition=bottom;verticalAlign=top;align=center;html=1;shape=mxgraph.aws3.dynamo_db;fillColor=#2E73B8;gradientColor=none;" parent="csvrrilFh1N0ctPD5fT1-32" vertex="1">
          <mxGeometry x="13.037333333333356" y="-27.31966942148773" width="23.97239666666667" height="28.263223140495867" as="geometry" />
        </mxCell>
        <mxCell id="csvrrilFh1N0ctPD5fT1-34" value="&amp;nbsp; &amp;nbsp; &amp;nbsp; &amp;nbsp; &amp;nbsp; Apartamentos" style="rounded=0;whiteSpace=wrap;html=1;fillColor=none;strokeColor=#000000;container=0;" parent="csvrrilFh1N0ctPD5fT1-31" vertex="1">
          <mxGeometry width="146.67" height="73.63" as="geometry" />
        </mxCell>
        <mxCell id="csvrrilFh1N0ctPD5fT1-35" value="" style="edgeStyle=orthogonalEdgeStyle;rounded=0;orthogonalLoop=1;jettySize=auto;html=1;entryX=0;entryY=0.5;entryDx=0;entryDy=0;" parent="xXk6c2fZzYA9Fltuj6-y-1" source="csvrrilFh1N0ctPD5fT1-11" target="csvrrilFh1N0ctPD5fT1-22" edge="1">
          <mxGeometry relative="1" as="geometry" />
        </mxCell>
        <mxCell id="csvrrilFh1N0ctPD5fT1-36" value="" style="edgeStyle=orthogonalEdgeStyle;rounded=0;orthogonalLoop=1;jettySize=auto;html=1;" parent="xXk6c2fZzYA9Fltuj6-y-1" source="csvrrilFh1N0ctPD5fT1-14" target="csvrrilFh1N0ctPD5fT1-34" edge="1">
          <mxGeometry relative="1" as="geometry">
            <Array as="points">
              <mxPoint x="750" y="443" />
              <mxPoint x="750" y="477" />
            </Array>
          </mxGeometry>
        </mxCell>
        <mxCell id="csvrrilFh1N0ctPD5fT1-37" value="" style="group" parent="xXk6c2fZzYA9Fltuj6-y-1" vertex="1" connectable="0">
          <mxGeometry x="-70.00000000000007" y="470.00000000000006" width="180" height="23.629999999999995" as="geometry" />
        </mxCell>
        <mxCell id="csvrrilFh1N0ctPD5fT1-39" value="" style="outlineConnect=0;dashed=0;verticalLabelPosition=bottom;verticalAlign=top;align=center;html=1;shape=mxgraph.aws3.lambda_function;fillColor=#F58534;gradientColor=none;" parent="csvrrilFh1N0ctPD5fT1-37" vertex="1">
          <mxGeometry x="9.670000000000059" y="3.8999999999999773" width="19" height="19.83" as="geometry" />
        </mxCell>
        <mxCell id="csvrrilFh1N0ctPD5fT1-41" value="" style="edgeStyle=orthogonalEdgeStyle;rounded=0;orthogonalLoop=1;jettySize=auto;html=1;entryX=0;entryY=0.5;entryDx=0;entryDy=0;exitX=1;exitY=0.5;exitDx=0;exitDy=0;" parent="xXk6c2fZzYA9Fltuj6-y-1" source="csvrrilFh1N0ctPD5fT1-38" target="csvrrilFh1N0ctPD5fT1-34" edge="1">
          <mxGeometry relative="1" as="geometry">
            <Array as="points">
              <mxPoint x="110" y="490" />
              <mxPoint x="750" y="490" />
              <mxPoint x="750" y="477" />
            </Array>
          </mxGeometry>
        </mxCell>
        <mxCell id="csvrrilFh1N0ctPD5fT1-43" value="" style="group" parent="xXk6c2fZzYA9Fltuj6-y-1" vertex="1" connectable="0">
          <mxGeometry x="-70" y="100" width="198.33" height="120" as="geometry" />
        </mxCell>
        <mxCell id="WuZXI1SwSD9bpul6dXoL-32" value="CloudWatch" style="html=1;whiteSpace=wrap;strokeColor=none;fillColor=#0079D6;labelPosition=center;verticalLabelPosition=middle;verticalAlign=top;align=center;fontSize=12;outlineConnect=0;spacingTop=-6;fontColor=#FFFFFF;sketch=0;shape=mxgraph.sitemap.cloud;" parent="csvrrilFh1N0ctPD5fT1-43" vertex="1">
          <mxGeometry width="198.33" height="120" as="geometry" />
        </mxCell>
        <mxCell id="WuZXI1SwSD9bpul6dXoL-38" value="Logs Insights" style="text;html=1;align=center;verticalAlign=middle;resizable=0;points=[];autosize=1;strokeColor=none;fillColor=none;fontColor=#FFFFFF;fontStyle=1" parent="csvrrilFh1N0ctPD5fT1-43" vertex="1">
          <mxGeometry x="53.33000000000001" y="70" width="90" height="30" as="geometry" />
        </mxCell>
        <mxCell id="WuZXI1SwSD9bpul6dXoL-39" value="" style="sketch=0;outlineConnect=0;fontColor=#232F3E;gradientColor=none;fillColor=#FFFFFF;strokeColor=none;dashed=0;verticalLabelPosition=bottom;verticalAlign=top;align=center;html=1;fontSize=12;fontStyle=0;aspect=fixed;pointerEvents=1;shape=mxgraph.aws4.cloudwatch_logs;" parent="csvrrilFh1N0ctPD5fT1-43" vertex="1">
          <mxGeometry x="10" y="31" width="52.45" height="39" as="geometry" />
        </mxCell>
        <mxCell id="csvrrilFh1N0ctPD5fT1-48" value="" style="edgeStyle=orthogonalEdgeStyle;rounded=0;orthogonalLoop=1;jettySize=auto;html=1;dashed=1;entryX=0.5;entryY=1;entryDx=0;entryDy=0;entryPerimeter=0;" parent="xXk6c2fZzYA9Fltuj6-y-1" source="S8SYonLmk7t8HdG_FkVH-44" target="WuZXI1SwSD9bpul6dXoL-32" edge="1">
          <mxGeometry relative="1" as="geometry">
            <Array as="points">
              <mxPoint x="306" y="230" />
              <mxPoint x="29" y="230" />
            </Array>
          </mxGeometry>
        </mxCell>
        <mxCell id="XhRNQRtLC91hvgqI6P-_-9" value="" style="edgeStyle=orthogonalEdgeStyle;rounded=0;orthogonalLoop=1;jettySize=auto;html=1;entryX=0.5;entryY=1;entryDx=0;entryDy=0;fillColor=#dae8fc;strokeColor=#6c8ebf;" parent="xXk6c2fZzYA9Fltuj6-y-1" source="XhRNQRtLC91hvgqI6P-_-0" target="csvrrilFh1N0ctPD5fT1-14" edge="1">
          <mxGeometry relative="1" as="geometry">
            <mxPoint x="-70" y="501.81499999999994" as="targetPoint" />
            <Array as="points">
              <mxPoint x="130" y="424" />
              <mxPoint x="130" y="480" />
              <mxPoint x="605" y="480" />
            </Array>
          </mxGeometry>
        </mxCell>
        <mxCell id="XhRNQRtLC91hvgqI6P-_-0" value="/manageCondition" style="rounded=0;whiteSpace=wrap;html=1;fillColor=none;container=0;strokeColor=#000000;" parent="xXk6c2fZzYA9Fltuj6-y-1" vertex="1">
          <mxGeometry x="-260" y="412.37" width="108.33" height="23.63" as="geometry" />
        </mxCell>
        <mxCell id="csvrrilFh1N0ctPD5fT1-38" value="/reservationUnit&amp;nbsp;&amp;nbsp;" style="rounded=0;whiteSpace=wrap;html=1;fillColor=none;container=0;strokeColor=#000000;" parent="xXk6c2fZzYA9Fltuj6-y-1" vertex="1">
          <mxGeometry x="-70.00000000000007" y="471.90000000000003" width="180" height="23.63" as="geometry" />
        </mxCell>
        <mxCell id="XhRNQRtLC91hvgqI6P-_-1" value="POST" style="rounded=0;whiteSpace=wrap;html=1;fillColor=none;strokeColor=#000000;container=0;" parent="xXk6c2fZzYA9Fltuj6-y-1" vertex="1">
          <mxGeometry x="-331.67" y="412.37" width="61.67" height="23.63" as="geometry" />
        </mxCell>
        <mxCell id="2QnFALfiIbMAlSI_lFyd-6" value="" style="edgeStyle=orthogonalEdgeStyle;rounded=0;orthogonalLoop=1;jettySize=auto;html=1;entryX=0;entryY=0.5;entryDx=0;entryDy=0;" edge="1" parent="xXk6c2fZzYA9Fltuj6-y-1" source="2QnFALfiIbMAlSI_lFyd-0" target="2QnFALfiIbMAlSI_lFyd-5">
          <mxGeometry relative="1" as="geometry">
            <Array as="points">
              <mxPoint x="-120" y="331" />
              <mxPoint x="-120" y="292" />
            </Array>
          </mxGeometry>
        </mxCell>
        <mxCell id="2QnFALfiIbMAlSI_lFyd-0" value="/manageResources" style="rounded=0;whiteSpace=wrap;html=1;fillColor=none;container=0;strokeColor=#000000;" vertex="1" parent="xXk6c2fZzYA9Fltuj6-y-1">
          <mxGeometry x="-260" y="319.01" width="108.33" height="23.63" as="geometry" />
        </mxCell>
        <mxCell id="2QnFALfiIbMAlSI_lFyd-1" value="PUT" style="rounded=0;whiteSpace=wrap;html=1;fillColor=none;strokeColor=#000000;container=0;" vertex="1" parent="xXk6c2fZzYA9Fltuj6-y-1">
          <mxGeometry x="-331.67" y="319.01" width="61.67" height="23.63" as="geometry" />
        </mxCell>
        <mxCell id="2QnFALfiIbMAlSI_lFyd-9" value="" style="group" vertex="1" connectable="0" parent="xXk6c2fZzYA9Fltuj6-y-1">
          <mxGeometry x="-70.00000000000007" y="280" width="180" height="23.629999999999995" as="geometry" />
        </mxCell>
        <mxCell id="2QnFALfiIbMAlSI_lFyd-5" value="/manageProjects" style="rounded=0;whiteSpace=wrap;html=1;fillColor=none;container=0;strokeColor=#000000;" vertex="1" parent="2QnFALfiIbMAlSI_lFyd-9">
          <mxGeometry width="180" height="23.63" as="geometry" />
        </mxCell>
        <mxCell id="2QnFALfiIbMAlSI_lFyd-8" value="" style="outlineConnect=0;dashed=0;verticalLabelPosition=bottom;verticalAlign=top;align=center;html=1;shape=mxgraph.aws3.lambda_function;fillColor=#F58534;gradientColor=none;" vertex="1" parent="2QnFALfiIbMAlSI_lFyd-9">
          <mxGeometry x="10.000000000000057" y="1.900000000000091" width="19" height="19.83" as="geometry" />
        </mxCell>
        <mxCell id="2QnFALfiIbMAlSI_lFyd-12" value="" style="edgeStyle=orthogonalEdgeStyle;rounded=0;orthogonalLoop=1;jettySize=auto;html=1;entryX=0;entryY=0.5;entryDx=0;entryDy=0;" edge="1" parent="xXk6c2fZzYA9Fltuj6-y-1" source="2QnFALfiIbMAlSI_lFyd-5" target="S8SYonLmk7t8HdG_FkVH-19">
          <mxGeometry relative="1" as="geometry">
            <mxPoint x="280" y="291.81500000000005" as="targetPoint" />
          </mxGeometry>
        </mxCell>
      </root>
    </mxGraphModel>
  </diagram>
  <diagram id="ThuSlEGikUzvrbps8QwF" name="Draft Base de Datos">
    <mxGraphModel dx="792" dy="737" grid="1" gridSize="10" guides="1" tooltips="1" connect="1" arrows="1" fold="1" page="1" pageScale="1" pageWidth="850" pageHeight="1100" math="0" shadow="0">
      <root>
        <mxCell id="0" />
        <mxCell id="1" parent="0" />
        <mxCell id="OaUnzAjthORdmekNx7XA-48" value="&lt;font color=&quot;#ffffff&quot;&gt;Proyectos&lt;/font&gt;" style="swimlane;whiteSpace=wrap;html=1;swimlaneFillColor=default;fillColor=#000000;startSize=23;" parent="1" vertex="1">
          <mxGeometry x="60" y="40" width="260" height="210" as="geometry" />
        </mxCell>
        <mxCell id="OaUnzAjthORdmekNx7XA-50" value="projectId" style="text;html=1;align=center;verticalAlign=middle;resizable=0;points=[];autosize=1;strokeColor=none;fillColor=none;fontSize=9;" parent="OaUnzAjthORdmekNx7XA-48" vertex="1">
          <mxGeometry x="5" y="25" width="60" height="20" as="geometry" />
        </mxCell>
        <mxCell id="OaUnzAjthORdmekNx7XA-51" value="name" style="text;html=1;align=center;verticalAlign=middle;resizable=0;points=[];autosize=1;strokeColor=none;fillColor=none;fontSize=9;" parent="OaUnzAjthORdmekNx7XA-48" vertex="1">
          <mxGeometry x="10" y="45" width="50" height="20" as="geometry" />
        </mxCell>
        <mxCell id="OaUnzAjthORdmekNx7XA-52" value="type" style="text;html=1;align=center;verticalAlign=middle;resizable=0;points=[];autosize=1;strokeColor=none;fillColor=none;fontSize=9;" parent="OaUnzAjthORdmekNx7XA-48" vertex="1">
          <mxGeometry x="15" y="65" width="40" height="20" as="geometry" />
        </mxCell>
        <mxCell id="OaUnzAjthORdmekNx7XA-53" value="responsible" style="text;html=1;align=center;verticalAlign=middle;resizable=0;points=[];autosize=1;strokeColor=none;fillColor=none;fontSize=9;" parent="OaUnzAjthORdmekNx7XA-48" vertex="1">
          <mxGeometry y="85" width="70" height="20" as="geometry" />
        </mxCell>
        <mxCell id="OaUnzAjthORdmekNx7XA-54" value="description" style="text;html=1;align=center;verticalAlign=middle;resizable=0;points=[];autosize=1;strokeColor=none;fillColor=none;fontSize=9;" parent="OaUnzAjthORdmekNx7XA-48" vertex="1">
          <mxGeometry x="5" y="105" width="70" height="20" as="geometry" />
        </mxCell>
        <mxCell id="OaUnzAjthORdmekNx7XA-55" value="Identificador de proyecto" style="text;html=1;align=left;verticalAlign=middle;resizable=0;points=[];autosize=1;strokeColor=none;fillColor=none;fontSize=9;" parent="OaUnzAjthORdmekNx7XA-48" vertex="1">
          <mxGeometry x="80" y="25" width="120" height="20" as="geometry" />
        </mxCell>
        <mxCell id="OaUnzAjthORdmekNx7XA-56" value="date_start" style="text;html=1;align=center;verticalAlign=middle;resizable=0;points=[];autosize=1;strokeColor=none;fillColor=none;fontSize=9;" parent="OaUnzAjthORdmekNx7XA-48" vertex="1">
          <mxGeometry x="5" y="125" width="60" height="20" as="geometry" />
        </mxCell>
        <mxCell id="OaUnzAjthORdmekNx7XA-57" value="date_end" style="text;html=1;align=center;verticalAlign=middle;resizable=0;points=[];autosize=1;strokeColor=none;fillColor=none;fontSize=9;" parent="OaUnzAjthORdmekNx7XA-48" vertex="1">
          <mxGeometry x="5" y="145" width="60" height="20" as="geometry" />
        </mxCell>
        <mxCell id="OaUnzAjthORdmekNx7XA-58" value="Nombre del proyecto" style="text;html=1;align=left;verticalAlign=middle;resizable=0;points=[];autosize=1;strokeColor=none;fillColor=none;fontSize=9;" parent="OaUnzAjthORdmekNx7XA-48" vertex="1">
          <mxGeometry x="80" y="45" width="110" height="20" as="geometry" />
        </mxCell>
        <mxCell id="OaUnzAjthORdmekNx7XA-59" value="Tipo de proyecto" style="text;html=1;align=left;verticalAlign=middle;resizable=0;points=[];autosize=1;strokeColor=none;fillColor=none;fontSize=9;" parent="OaUnzAjthORdmekNx7XA-48" vertex="1">
          <mxGeometry x="80" y="65" width="90" height="20" as="geometry" />
        </mxCell>
        <mxCell id="OaUnzAjthORdmekNx7XA-60" value="Responsable(s) de gestión" style="text;html=1;align=left;verticalAlign=middle;resizable=0;points=[];autosize=1;strokeColor=none;fillColor=none;fontSize=9;" parent="OaUnzAjthORdmekNx7XA-48" vertex="1">
          <mxGeometry x="80" y="85" width="130" height="20" as="geometry" />
        </mxCell>
        <mxCell id="OaUnzAjthORdmekNx7XA-61" value="Descripción del proyecto" style="text;html=1;align=left;verticalAlign=middle;resizable=0;points=[];autosize=1;strokeColor=none;fillColor=none;fontSize=9;" parent="OaUnzAjthORdmekNx7XA-48" vertex="1">
          <mxGeometry x="80" y="105" width="120" height="20" as="geometry" />
        </mxCell>
        <mxCell id="OaUnzAjthORdmekNx7XA-62" value="Fecha inicial del proyecto" style="text;html=1;align=left;verticalAlign=middle;resizable=0;points=[];autosize=1;strokeColor=none;fillColor=none;fontSize=9;" parent="OaUnzAjthORdmekNx7XA-48" vertex="1">
          <mxGeometry x="80" y="125" width="130" height="20" as="geometry" />
        </mxCell>
        <mxCell id="OaUnzAjthORdmekNx7XA-63" value="Fecha final estimada del proyecto" style="text;html=1;align=left;verticalAlign=middle;resizable=0;points=[];autosize=1;strokeColor=none;fillColor=none;fontSize=9;" parent="OaUnzAjthORdmekNx7XA-48" vertex="1">
          <mxGeometry x="80" y="145" width="160" height="20" as="geometry" />
        </mxCell>
        <mxCell id="lhp0lwnwCeZG9D_RaqNW-18" value="" style="rounded=0;whiteSpace=wrap;html=1;fillColor=none;" parent="OaUnzAjthORdmekNx7XA-48" vertex="1">
          <mxGeometry y="23" width="70" height="187" as="geometry" />
        </mxCell>
        <mxCell id="8T3mJhJAw1OodVN1JOWk-1" value="resourcesLimit" style="text;html=1;align=center;verticalAlign=middle;resizable=0;points=[];autosize=1;strokeColor=none;fillColor=none;fontSize=9;" vertex="1" parent="OaUnzAjthORdmekNx7XA-48">
          <mxGeometry x="-5" y="165" width="80" height="20" as="geometry" />
        </mxCell>
        <mxCell id="8T3mJhJAw1OodVN1JOWk-2" value="resourcesToday" style="text;html=1;align=center;verticalAlign=middle;resizable=0;points=[];autosize=1;strokeColor=none;fillColor=none;fontSize=9;" vertex="1" parent="OaUnzAjthORdmekNx7XA-48">
          <mxGeometry x="-10" y="185" width="90" height="20" as="geometry" />
        </mxCell>
        <mxCell id="8T3mJhJAw1OodVN1JOWk-3" value="Limite total de recursos del proyecto" style="text;html=1;align=left;verticalAlign=middle;resizable=0;points=[];autosize=1;strokeColor=none;fillColor=none;fontSize=9;" vertex="1" parent="OaUnzAjthORdmekNx7XA-48">
          <mxGeometry x="80" y="165" width="170" height="20" as="geometry" />
        </mxCell>
        <mxCell id="8T3mJhJAw1OodVN1JOWk-4" value="Recursos utilizados hasta el día actual" style="text;html=1;align=left;verticalAlign=middle;resizable=0;points=[];autosize=1;strokeColor=none;fillColor=none;fontSize=9;" vertex="1" parent="OaUnzAjthORdmekNx7XA-48">
          <mxGeometry x="80" y="185" width="180" height="20" as="geometry" />
        </mxCell>
        <mxCell id="OaUnzAjthORdmekNx7XA-49" value="&lt;font color=&quot;#ffffff&quot;&gt;Apartamentos&lt;/font&gt;" style="swimlane;whiteSpace=wrap;html=1;swimlaneFillColor=default;fillColor=#000000;" parent="1" vertex="1">
          <mxGeometry x="60" y="270" width="230" height="170" as="geometry">
            <mxRectangle x="340" y="40" width="120" height="30" as="alternateBounds" />
          </mxGeometry>
        </mxCell>
        <mxCell id="lhp0lwnwCeZG9D_RaqNW-16" value="" style="rounded=0;whiteSpace=wrap;html=1;fillColor=none;" parent="OaUnzAjthORdmekNx7XA-49" vertex="1">
          <mxGeometry y="23" width="70" height="147" as="geometry" />
        </mxCell>
        <mxCell id="OaUnzAjthORdmekNx7XA-17" value="proyectoId" style="text;html=1;align=center;verticalAlign=middle;resizable=0;points=[];autosize=1;strokeColor=none;fillColor=none;fontSize=9;" parent="OaUnzAjthORdmekNx7XA-49" vertex="1">
          <mxGeometry y="23" width="70" height="20" as="geometry" />
        </mxCell>
        <mxCell id="OaUnzAjthORdmekNx7XA-19" value="area" style="text;html=1;align=center;verticalAlign=middle;resizable=0;points=[];autosize=1;strokeColor=none;fillColor=none;fontSize=9;" parent="OaUnzAjthORdmekNx7XA-49" vertex="1">
          <mxGeometry x="15" y="63" width="40" height="20" as="geometry" />
        </mxCell>
        <mxCell id="OaUnzAjthORdmekNx7XA-20" value="floor" style="text;html=1;align=center;verticalAlign=middle;resizable=0;points=[];autosize=1;strokeColor=none;fillColor=none;fontSize=9;" parent="OaUnzAjthORdmekNx7XA-49" vertex="1">
          <mxGeometry x="15" y="83" width="40" height="20" as="geometry" />
        </mxCell>
        <mxCell id="OaUnzAjthORdmekNx7XA-21" value="price" style="text;html=1;align=center;verticalAlign=middle;resizable=0;points=[];autosize=1;strokeColor=none;fillColor=none;fontSize=9;" parent="OaUnzAjthORdmekNx7XA-49" vertex="1">
          <mxGeometry x="15" y="103" width="40" height="20" as="geometry" />
        </mxCell>
        <mxCell id="OaUnzAjthORdmekNx7XA-22" value="stage" style="text;html=1;align=center;verticalAlign=middle;resizable=0;points=[];autosize=1;strokeColor=none;fillColor=none;fontSize=9;" parent="OaUnzAjthORdmekNx7XA-49" vertex="1">
          <mxGeometry x="10" y="123" width="50" height="20" as="geometry" />
        </mxCell>
        <mxCell id="OaUnzAjthORdmekNx7XA-23" value="stratum" style="text;html=1;align=center;verticalAlign=middle;resizable=0;points=[];autosize=1;strokeColor=none;fillColor=none;fontSize=9;" parent="OaUnzAjthORdmekNx7XA-49" vertex="1">
          <mxGeometry x="10" y="143" width="50" height="20" as="geometry" />
        </mxCell>
        <mxCell id="OaUnzAjthORdmekNx7XA-24" value="Identificador del proyecto-inmueble" style="text;html=1;align=left;verticalAlign=middle;resizable=0;points=[];autosize=1;strokeColor=none;fillColor=none;fontSize=9;" parent="OaUnzAjthORdmekNx7XA-49" vertex="1">
          <mxGeometry x="80" y="23" width="160" height="20" as="geometry" />
        </mxCell>
        <mxCell id="lhp0lwnwCeZG9D_RaqNW-1" value="apartmentId" style="text;html=1;align=center;verticalAlign=middle;resizable=0;points=[];autosize=1;strokeColor=none;fillColor=none;fontSize=9;" parent="OaUnzAjthORdmekNx7XA-49" vertex="1">
          <mxGeometry y="43" width="70" height="20" as="geometry" />
        </mxCell>
        <mxCell id="lhp0lwnwCeZG9D_RaqNW-19" value="Identificador del inmueble" style="text;html=1;align=left;verticalAlign=middle;resizable=0;points=[];autosize=1;strokeColor=none;fillColor=none;fontSize=9;" parent="OaUnzAjthORdmekNx7XA-49" vertex="1">
          <mxGeometry x="80" y="43" width="130" height="20" as="geometry" />
        </mxCell>
        <mxCell id="lhp0lwnwCeZG9D_RaqNW-20" value="Area del inmueble" style="text;html=1;align=left;verticalAlign=middle;resizable=0;points=[];autosize=1;strokeColor=none;fillColor=none;fontSize=9;" parent="OaUnzAjthORdmekNx7XA-49" vertex="1">
          <mxGeometry x="80" y="63" width="100" height="20" as="geometry" />
        </mxCell>
        <mxCell id="lhp0lwnwCeZG9D_RaqNW-21" value="Piso del inmueble" style="text;html=1;align=left;verticalAlign=middle;resizable=0;points=[];autosize=1;strokeColor=none;fillColor=none;fontSize=9;" parent="OaUnzAjthORdmekNx7XA-49" vertex="1">
          <mxGeometry x="80" y="84.5" width="90" height="20" as="geometry" />
        </mxCell>
        <mxCell id="lhp0lwnwCeZG9D_RaqNW-22" value="Precio del inmueble" style="text;html=1;align=left;verticalAlign=middle;resizable=0;points=[];autosize=1;strokeColor=none;fillColor=none;fontSize=9;" parent="OaUnzAjthORdmekNx7XA-49" vertex="1">
          <mxGeometry x="80" y="104.5" width="100" height="20" as="geometry" />
        </mxCell>
        <mxCell id="lhp0lwnwCeZG9D_RaqNW-23" value="Etapa de construcción del inmueble" style="text;html=1;align=left;verticalAlign=middle;resizable=0;points=[];autosize=1;strokeColor=none;fillColor=none;fontSize=9;" parent="OaUnzAjthORdmekNx7XA-49" vertex="1">
          <mxGeometry x="80" y="123" width="170" height="20" as="geometry" />
        </mxCell>
        <mxCell id="lhp0lwnwCeZG9D_RaqNW-24" value="Estrato del inmueble" style="text;html=1;align=left;verticalAlign=middle;resizable=0;points=[];autosize=1;strokeColor=none;fillColor=none;fontSize=9;" parent="OaUnzAjthORdmekNx7XA-49" vertex="1">
          <mxGeometry x="80" y="143" width="110" height="20" as="geometry" />
        </mxCell>
        <mxCell id="teyiMBqiSMvHOhEFf-e4-1" value="&lt;font color=&quot;#ffffff&quot;&gt;Ventas&lt;/font&gt;" style="swimlane;whiteSpace=wrap;html=1;swimlaneFillColor=default;fillColor=#000000;" parent="1" vertex="1">
          <mxGeometry x="60" y="460" width="300" height="110" as="geometry">
            <mxRectangle x="30" y="76.13" width="90" height="30" as="alternateBounds" />
          </mxGeometry>
        </mxCell>
        <mxCell id="lhp0lwnwCeZG9D_RaqNW-25" value="" style="rounded=0;whiteSpace=wrap;html=1;fillColor=none;" parent="teyiMBqiSMvHOhEFf-e4-1" vertex="1">
          <mxGeometry y="23" width="70" height="87" as="geometry" />
        </mxCell>
        <mxCell id="teyiMBqiSMvHOhEFf-e4-2" value="buyId" style="text;html=1;align=center;verticalAlign=middle;resizable=0;points=[];autosize=1;strokeColor=none;fillColor=none;fontSize=9;" parent="teyiMBqiSMvHOhEFf-e4-1" vertex="1">
          <mxGeometry x="10" y="25" width="50" height="20" as="geometry" />
        </mxCell>
        <mxCell id="teyiMBqiSMvHOhEFf-e4-3" value="apartmentId" style="text;html=1;align=center;verticalAlign=middle;resizable=0;points=[];autosize=1;strokeColor=none;fillColor=none;fontSize=9;" parent="teyiMBqiSMvHOhEFf-e4-1" vertex="1">
          <mxGeometry y="45" width="70" height="20" as="geometry" />
        </mxCell>
        <mxCell id="teyiMBqiSMvHOhEFf-e4-4" value="proyectoId" style="text;html=1;align=center;verticalAlign=middle;resizable=0;points=[];autosize=1;strokeColor=none;fillColor=none;fontSize=9;" parent="teyiMBqiSMvHOhEFf-e4-1" vertex="1">
          <mxGeometry y="65" width="70" height="20" as="geometry" />
        </mxCell>
        <mxCell id="teyiMBqiSMvHOhEFf-e4-5" value="reserveToken" style="text;html=1;align=center;verticalAlign=middle;resizable=0;points=[];autosize=1;strokeColor=none;fillColor=none;fontSize=9;" parent="teyiMBqiSMvHOhEFf-e4-1" vertex="1">
          <mxGeometry x="-5" y="85" width="80" height="20" as="geometry" />
        </mxCell>
        <mxCell id="teyiMBqiSMvHOhEFf-e4-7" value="Identificador unico de la venta" style="text;html=1;align=left;verticalAlign=middle;resizable=0;points=[];autosize=1;strokeColor=none;fillColor=none;fontSize=9;" parent="teyiMBqiSMvHOhEFf-e4-1" vertex="1">
          <mxGeometry x="80" y="25" width="140" height="20" as="geometry" />
        </mxCell>
        <mxCell id="teyiMBqiSMvHOhEFf-e4-10" value="Identificador del inmueble" style="text;html=1;align=left;verticalAlign=middle;resizable=0;points=[];autosize=1;strokeColor=none;fillColor=none;fontSize=9;" parent="teyiMBqiSMvHOhEFf-e4-1" vertex="1">
          <mxGeometry x="80" y="45" width="130" height="20" as="geometry" />
        </mxCell>
        <mxCell id="teyiMBqiSMvHOhEFf-e4-11" value="Identificador de proyecto" style="text;html=1;align=left;verticalAlign=middle;resizable=0;points=[];autosize=1;strokeColor=none;fillColor=none;fontSize=9;" parent="teyiMBqiSMvHOhEFf-e4-1" vertex="1">
          <mxGeometry x="80" y="65" width="120" height="20" as="geometry" />
        </mxCell>
        <mxCell id="teyiMBqiSMvHOhEFf-e4-12" value="Token de la reserva con la que se hizo la compra" style="text;html=1;align=left;verticalAlign=middle;resizable=0;points=[];autosize=1;strokeColor=none;fillColor=none;fontSize=9;" parent="teyiMBqiSMvHOhEFf-e4-1" vertex="1">
          <mxGeometry x="80" y="85" width="220" height="20" as="geometry" />
        </mxCell>
      </root>
    </mxGraphModel>
  </diagram>
</mxfile>
